<svg width="34" height="37" viewBox="0 0 34 37" fill="none" xmlns="http://www.w3.org/2000/svg">
<path d="M32.7656 20.6797C33.3984 19.625 33.75 18.5 33.75 17.1641C33.75 14.0703 31.0781 11.1875 27.7031 11.1875H25.1016C25.4531 10.2734 25.7344 9.21875 25.7344 7.88281C25.7344 2.75 23.0625 0.5 19.0547 0.5C14.6953 0.5 14.9766 7.17969 13.9922 8.16406C12.375 9.78125 10.4766 12.875 9.14062 14H2.25C0.984375 14 0 15.0547 0 16.25V33.125C0 34.3906 0.984375 35.375 2.25 35.375H6.75C7.73438 35.375 8.64844 34.6719 8.85938 33.7578C12.0234 33.8281 14.2031 36.5 21.375 36.5C21.9375 36.5 22.5 36.5 22.9922 36.5C28.4062 36.5 30.7969 33.7578 30.8672 29.8203C31.8516 28.5547 32.3438 26.7969 32.1328 25.1094C32.8359 23.8438 33.0469 22.2969 32.7656 20.6797ZM28.4062 24.4766C29.3203 25.9531 28.4766 27.9219 27.4219 28.5547C27.9844 31.9297 26.1562 33.125 23.6953 33.125H21.0234C16.0312 33.125 12.7266 30.5234 9 30.5234V17.375H9.70312C11.7422 17.375 14.4844 12.4531 16.3828 10.5547C18.3516 8.58594 17.7188 5.21094 19.0547 3.875C22.3594 3.875 22.3594 6.19531 22.3594 7.88281C22.3594 10.625 20.3906 11.8906 20.3906 14.5625H27.7031C29.1797 14.5625 30.3047 15.8984 30.375 17.2344C30.375 18.5 29.4609 19.8359 28.7578 19.8359C29.7422 20.8906 29.9531 23.0703 28.4062 24.4766ZM6.1875 30.875C6.1875 31.8594 5.41406 32.5625 4.5 32.5625C3.51562 32.5625 2.8125 31.8594 2.8125 30.875C2.8125 29.9609 3.51562 29.1875 4.5 29.1875C5.41406 29.1875 6.1875 29.9609 6.1875 30.875Z" fill="black"/>
</svg>
