<svg width="36" height="37" viewBox="0 0 36 37" fill="none" xmlns="http://www.w3.org/2000/svg">
<path d="M31.5 0.5H4.5C1.96875 0.5 0 2.53906 0 5V25.25C0 27.7812 1.96875 29.75 4.5 29.75H11.25V35.6562C11.25 36.2188 11.6016 36.5 12.0938 36.5C12.2344 36.5 12.375 36.5 12.5859 36.3594L21.375 29.75H31.5C33.9609 29.75 36 27.7812 36 25.25V5C36 2.53906 33.9609 0.5 31.5 0.5ZM32.625 25.25C32.625 25.8828 32.0625 26.375 31.5 26.375H20.25L19.3359 27.0781L14.625 30.5938V26.375H4.5C3.86719 26.375 3.375 25.8828 3.375 25.25V5C3.375 4.4375 3.86719 3.875 4.5 3.875H31.5C32.0625 3.875 32.625 4.4375 32.625 5V25.25Z" fill="black"/>
</svg>
